# xmcd CD database file
#
# Track frame offsets:
#	150
#	9590
#	25610
#	38742
#	55350
#	64710
#	80652
#	106567
#	118895
#	134305
#
# Disc length: 2032 seconds
#
# Revision: 9
# Processed by: cddbd v1.5.1PL0 Copyright (c) Steve Scherf et al.
# Submitted via: CDex 1.51
#
DISCID=7a07ee0a
DTITLE=Blues Brothers - Made In America
DYEAR=1980
DGENRE=Blues
TTITLE0=Soul Finger (Including "Funky Broadway")
TTITLE1=Who's Making Love
TTITLE2=Do You Love Me (Including "Mother Popcorn [You Got To Have A Mother For Me]")
TTITLE3=Guilty
TTITLE4=Perry Mason Theme
TTITLE5=Riot In Cell Block Number Nine
TTITLE6=Green Onions
TTITLE7=I Ain't Got You
TTITLE8=From The Bottom
TTITLE9=Going Back To Miami
EXTD=Recorded live at The Universal Amphitheater/Los Angeles/USA YEAR: 1980
EXTT0=
EXTT1=
EXTT2=
EXTT3=
EXTT4=
EXTT5=
EXTT6=
EXTT7=
EXTT8=
EXTT9=
PLAYORDER=
